<?xml version="1.0" encoding="UTF-8" standalone="no"?>
<svg width="18px" height="14px" viewBox="0 0 18 14" version="1.1" xmlns="http://www.w3.org/2000/svg" xmlns:xlink="http://www.w3.org/1999/xlink">
    <!-- Generator: Sketch 41 (35326) - http://www.bohemiancoding.com/sketch -->
    <title>Shape</title>
    <desc>Created with Sketch.</desc>
    <defs></defs>
    <g id="Clyp-3.0" stroke="none" stroke-width="1" fill="none" fill-rule="evenodd">
        <g id="Misc.-Pages" transform="translate(-593.000000, -577.000000)" stroke="#3DBEB3" fill="#3DBEB3">
            <g id="Premium-coming-soon" transform="translate(0.000000, 63.000000)">
                <g id="plus" transform="translate(547.000000, 270.000000)">
                    <g id="features" transform="translate(44.000000, 149.000000)">
                        <g id="profile-URL" transform="translate(3.000000, 93.000000)">
                            <path d="M6.00025,14.9995535 C5.73525,14.9995535 5.48025,14.8945535 5.29325,14.7065535 L0.29325,9.70655351 C-0.09775,9.31555351 -0.09775,8.68355351 0.29325,8.29255351 C0.68425,7.90155351 1.31625,7.90155351 1.70725,8.29255351 L5.96225,12.5475535 L14.25725,3.33055351 C14.62725,2.92155351 15.25925,2.88655351 15.66925,3.25655351 C16.07925,3.62555351 16.11225,4.25755351 15.74325,4.66855351 L6.74325,14.6685535 C6.56025,14.8725535 6.30025,14.9915535 6.02625,14.9995535 L6.00025,14.9995535 L6.00025,14.9995535 Z" id="Shape"></path>
                        </g>
                    </g>
                </g>
            </g>
        </g>
    </g>
</svg>