<?xml version="1.0" encoding="UTF-8" standalone="no"?>
<svg width="30px" height="30px" viewBox="0 0 30 30" version="1.1" xmlns="http://www.w3.org/2000/svg" xmlns:xlink="http://www.w3.org/1999/xlink">
    <!-- Generator: Sketch 41.1 (35376) - http://www.bohemiancoding.com/sketch -->
    <title>Shape</title>
    <desc>Created with Sketch.</desc>
    <defs></defs>
    <g id="Clyp-3.0" stroke="none" stroke-width="1" fill="none" fill-rule="evenodd">
        <g id="Misc.-Pages" transform="translate(-1221.000000, -341.000000)" fill="#FDFFFC">
            <g id="Premium-coming-soon" transform="translate(0.000000, 63.000000)">
                <g id="PRO" transform="translate(914.000000, 270.000000)">
                    <path d="M322,8 C313.714286,8 307,14.7142857 307,23 C307,31.2857143 313.714286,38 322,38 C330.285714,38 337,31.2857143 337,23 C337,14.7142857 330.285714,8 322,8 Z M328.714286,20.320619 L321.142857,27.4634762 C320.571429,27.9634762 319.714286,27.9634762 319.142857,27.3920476 L315.285714,23.4634762 C314.714286,22.8920476 314.714286,21.9634762 315.285714,21.4634762 C315.857143,20.9634762 316.785714,20.8920476 317.285714,21.4634762 L320.142857,24.3920476 L326.714286,18.2491905 C327.357143,17.820619 328.214286,17.9634762 328.714286,18.5349047 C329.142857,19.0349047 329.142857,19.7491905 328.714286,20.320619 Z" id="Shape"></path>
                </g>
            </g>
        </g>
    </g>
</svg>