<?xml version="1.0" encoding="UTF-8" standalone="no"?>
<svg width="14px" height="14px" viewBox="0 0 14 14" version="1.1" xmlns="http://www.w3.org/2000/svg" xmlns:xlink="http://www.w3.org/1999/xlink">
    <!-- Generator: Sketch 41 (35326) - http://www.bohemiancoding.com/sketch -->
    <title>Path</title>
    <desc>Created with Sketch.</desc>
    <defs></defs>
    <g id="Clyp-3.0" stroke="none" stroke-width="1" fill="none" fill-rule="evenodd">
        <g id="Misc.-Pages" transform="translate(-597.000000, -577.000000)" stroke="#E2665A" fill="#E2665A">
            <g id="Premium-coming-soon" transform="translate(0.000000, 63.000000)">
                <g id="plus" transform="translate(547.000000, 270.000000)">
                    <g id="features" transform="translate(44.000000, 149.000000)">
                        <g id="profile-URL" transform="translate(3.000000, 93.000000)">
                            <path d="M11.1565376,9.00196441 L15.7591155,4.39987764 C16.0812763,4.07771685 16.0793119,3.56157201 15.7591155,3.24088452 C15.438428,2.91872373 14.9222831,2.9226525 14.6020867,3.24088452 L10,7.84297124 L5.39791328,3.24088452 C5.07575244,2.91872373 4.55960765,2.92068809 4.24088452,3.24088452 C3.91872373,3.56353642 3.92068809,4.07919015 4.24088452,4.39987764 L8.84346236,9.00196441 L4.24088452,13.6020867 C3.91872373,13.9242476 3.92068809,14.4403924 4.24088452,14.7605888 C4.56157201,15.0832407 5.07771685,15.0812763 5.39791328,14.7605888 L10,10.1585021 L14.6020867,14.7605888 C14.9242476,15.0832407 15.4403924,15.0812763 15.7591155,14.7605888 C16.0812763,14.438428 16.0793119,13.9222831 15.7591155,13.6020867 L11.1565376,9.00196441 Z" id="Path"></path>
                        </g>
                    </g>
                </g>
            </g>
        </g>
    </g>
</svg>